<svg version="1.1" xmlns="http://www.w3.org/2000/svg" xmlns:xlink="http://www.w3.org/1999/xlink" width="512px" height="512px" viewBox="0,0,256,256"><g transform="translate(12.8,12.8) scale(0.9,0.9)"><g fill="#33cccc" fill-rule="nonzero" stroke="none" stroke-width="1" stroke-linecap="butt" stroke-linejoin="miter" stroke-miterlimit="10" stroke-dasharray="" stroke-dashoffset="0" font-family="none" font-weight="none" font-size="none" text-anchor="none" style="mix-blend-mode: normal"><g transform="scale(0.5,0.5)"><g><g><g><path d="M106.012,141.672h34.024v51.56h34.072v-51.56h34.024l-51.056,-75.688z"></path><path d="M237.468,193.232h34.072v-85.856h34.024l-51.064,-75.688l-51.064,75.688h34.032z"></path><path d="M338.044,193.232h34.072v-117.544h34.024l-51.064,-75.688l-51.056,75.688h34.024z"></path><path d="M125.948,375.4c24.584,0 44.52,-19.936 44.52,-44.52h-44.52v-44.52c-24.584,0 -44.52,19.936 -44.52,44.52c0,24.584 19.936,44.52 44.52,44.52z"></path><path d="M135.124,277.184v44.52h44.52c0,-24.592 -19.928,-44.52 -44.52,-44.52z"></path><path d="M125.948,422.96c-24.584,0 -44.52,19.936 -44.52,44.52c0,24.584 19.936,44.52 44.52,44.52c24.584,0 44.52,-19.936 44.52,-44.52h-44.52z"></path><path d="M135.124,413.776v44.52h44.52c0,-24.584 -19.928,-44.52 -44.52,-44.52z"></path><rect x="213.052" y="304.4" width="217.52" height="16"></rect><rect x="213.052" y="340.944" width="217.52" height="16"></rect><rect x="213.052" y="436.768" width="217.52" height="16"></rect><rect x="213.052" y="473.28" width="217.52" height="16"></rect></g></g></g></g></g></g></svg>