<svg version="1.1" xmlns="http://www.w3.org/2000/svg" xmlns:xlink="http://www.w3.org/1999/xlink" width="800px" height="800px" viewBox="0,0,256,256"><g fill="none" fill-rule="nonzero" stroke="none" stroke-width="1" stroke-linecap="butt" stroke-linejoin="miter" stroke-miterlimit="10" stroke-dasharray="" stroke-dashoffset="0" font-family="none" font-weight="none" font-size="none" text-anchor="none" style="mix-blend-mode: normal"><g transform="scale(8,8)"><g id="path" fill="#33cccc"><g id="path16_fill"><path d="M26.0766,3.5878c0.04187,0.68499 -0.33465,1.3273 -0.9528,1.62538c-0.61816,0.29808 -1.35519,0.19275 -1.86511,-0.26655c-0.50992,-0.4593 -0.69145,-1.18136 -0.45938,-1.8272c0.23207,-0.64584 0.83166,-1.08722 1.51729,-1.11692c0.44395,-0.0245 0.87934,0.12905 1.2097,0.42662c0.33036,0.29757 0.52843,0.7146 0.5503,1.15868z" id="path7_fill"></path></g></g><g id="path-2" fill="#33cccc"><g id="path17_fill"><path d="M16.2191,23.1113c-4.4866,0 -8.43,-1.61 -10.4688,-3.9882c1.62029,4.38133 5.79752,7.29024 10.46885,7.29024c4.67133,0 8.84856,-2.90892 10.46885,-7.29024c-2.0339,2.378 -5.9623,3.9882 -10.4689,3.9882z" id="path8_fill"></path></g></g><g id="path-3" fill="#33cccc"><g id="path18_fill"><path d="M16.2191,7.6483c4.4867,0 8.43,1.61 10.4689,3.9881c-1.62029,-4.38133 -5.79752,-7.29024 -10.46885,-7.29024c-4.67133,0 -8.84856,2.90892 -10.46885,7.29024c2.0389,-2.3829 5.9623,-3.9881 10.4688,-3.9881z" id="path9_fill"></path></g></g><g id="path-4" fill="#33cccc"><g id="path19_fill"><path d="M10.0427,27.7388c0.05734,1.0829 -0.71606,2.03271 -1.78812,2.19597c-1.07206,0.16326 -2.09313,-0.51329 -2.36073,-1.56417c-0.2676,-1.05088 0.30556,-2.13337 1.32514,-2.50273c1.01958,-0.36936 2.15306,0.09489 2.62061,1.07333c0.11896,0.25011 0.18796,0.52105 0.2031,0.7976z" id="path10_fill"></path></g></g><g id="path-5" fill="#33cccc"><g id="path20_fill"><path d="M6.26,7.1064c-0.6748,0.01847 -1.23764,-0.51191 -1.25923,-1.18662c-0.02159,-0.67471 0.50618,-1.23999 1.18078,-1.2647c0.6746,-0.02471 1.24232,0.50044 1.27015,1.17492c0.01966,0.68015 -0.51181,1.24939 -1.1917,1.2764z" id="path11_fill"></path></g></g><rect x="0" y="0" width="32" height="32" id="_Transparent_Rectangle_" fill="none"></rect></g></g></svg>